<svg width="30" height="30" viewBox="0 0 30 30" xmlns="http://www.w3.org/2000/svg">
  <defs>
    <pattern id="chainlink-pattern" patternUnits="userSpaceOnUse" width="30" height="30">
      <path d="M 7.5,0 C 3.358,0 0,3.358 0,7.5 0,11.642 3.358,15 7.5,15 M 7.5,30 C 11.642,30 15,26.642 15,22.5 15,18.358 11.642,15 7.5,15" stroke="#000000" stroke-width="1.5" stroke-opacity="0.15" fill="none"/>
      <path d="M 22.5,0 C 26.642,0 30,3.358 30,7.5 30,11.642 26.642,15 22.5,15 M 22.5,30 C 18.358,30 15,26.642 15,22.5 15,18.358 18.358,15 22.5,15" stroke="#000000" stroke-width="1.5" stroke-opacity="0.15" fill="none"/>
    </pattern>
  </defs>
  <rect width="100%" height="100%" fill="url(#chainlink-pattern)"/>
</svg>
