<svg width="32" height="32" viewBox="0 0 32 32" xmlns="http://www.w3.org/2000/svg">
  <title>Detailed Interlocking Chainlink</title>
  <defs>
    <pattern id="chainlink-fence-pattern" patternUnits="userSpaceOnUse" width="32" height="32">
      <g fill="none" stroke="#000000" stroke-opacity="0.12" stroke-width="1.5" stroke-linecap="round">
        {/* Define one full diamond "link" using curves, broken for overlap illusion */}
        {/* Left Top to Center Bottom */}
        <path d="M 8,0   C 0,8  0,24  8,32" /> 
        <path d="M 24,0  C 16,8 16,24 24,32" /> 
        
        {/* Right Top to Center Bottom */}
        <path d="M 8,0   C 16,8 16,24  8,32" /> 
        <path d="M 24,0  C 32,8 32,24 24,32" /> 

        {/* Horizontal connections - draw "under" paths first (partially) */}
         <path d="M 0,8  C 8,16 24,16 32,8" />
         <path d="M 0,24 C 8,16 24,16 32,24" />

         {/* Attempt overlap by drawing segments "over" */}
         {/* Re-draw center sections of vertical wires */}
         <path d="M 8,8 C 8,16 8,16 8,24" /> 
         <path d="M 24,8 C 24,16 24,16 24,24" /> 
         
         {/* Add segments for tiling continuity - these must align with pattern repetition */}
         {/* Extra vertical segments crossing boundaries */}
         <path d="M -8, 0 C 0,8 0,24 -8,32" />
         <path d="M 40, 0 C 32,8 32,24 40,32" />
         {/* Extra horizontal segments crossing boundaries */}
          <path d="M 16, -8 C 24,0 40,0 48, -8" /> 
          <path d="M 16, 40 C 24,32 40,32 48, 40" /> 
          
      </g>
    </pattern>
  </defs>
  <rect width="100%" height="100%" fill="url(#chainlink-fence-pattern)"/>
</svg>
