<?xml version="1.0" encoding="UTF-8"?>
<svg width="40" height="40" viewBox="0 0 40 40" fill="none" xmlns="http://www.w3.org/2000/svg">
  <path d="M28.3333 35V31.6667C28.3333 29.8986 27.6309 28.2029 26.3807 26.9526C25.1304 25.7024 23.4348 25 21.6667 25H8.33334C6.56523 25 4.86955 25.7024 3.61931 26.9526C2.36906 28.2029 1.66667 29.8986 1.66667 31.6667V35" stroke="black" stroke-width="3" stroke-linecap="round" stroke-linejoin="round"/>
  <path d="M15 18.3333C18.6819 18.3333 21.6667 15.3486 21.6667 11.6667C21.6667 7.98477 18.6819 5 15 5C11.3181 5 8.33334 7.98477 8.33334 11.6667C8.33334 15.3486 11.3181 18.3333 15 18.3333Z" stroke="black" stroke-width="3" stroke-linecap="round" stroke-linejoin="round"/>
  <path d="M38.3333 35V31.6667C38.3322 30.1987 37.8679 28.7727 37.0073 27.6023C36.1467 26.4319 34.9415 25.586 33.5833 25.1833" stroke="black" stroke-width="3" stroke-linecap="round" stroke-linejoin="round"/>
  <path d="M26.9167 5.18333C28.2782 5.58397 29.4865 6.43089 30.3487 7.60404C31.211 8.77719 31.6753 10.2066 31.6753 11.6775C31.6753 13.1484 31.211 14.5778 30.3487 15.751C29.4865 16.9241 28.2782 17.771 26.9167 18.1717" stroke="black" stroke-width="3" stroke-linecap="round" stroke-linejoin="round"/>
</svg>
