<?xml version="1.0" encoding="UTF-8"?>
<svg width="40" height="40" viewBox="0 0 40 40" fill="none" xmlns="http://www.w3.org/2000/svg">
  <path d="M33.3334 25.7V30.7C33.3345 31.1481 33.2438 31.5908 33.0672 32.0026C32.8907 32.4144 32.6321 32.7861 32.3074 33.0934C31.9828 33.4006 31.5991 33.6368 31.1805 33.7881C30.7618 33.9394 30.3171 34.0027 29.8734 33.9733C25.8334 33.56 21.9534 32.1533 18.5467 29.8733C15.3931 27.7866 12.7601 25.1536 10.6734 22C8.38671 18.58 6.97937 14.6833 6.57337 10.6267C6.54403 10.1839 6.60673 9.74005 6.75721 9.32212C6.90768 8.90419 7.14276 8.52103 7.44881 8.19666C7.75485 7.87229 8.1253 7.61366 8.53588 7.43664C8.94646 7.25963 9.38803 7.16798 9.83337 7.16666H14.8334C15.6134 7.15856 16.3675 7.44644 16.9534 7.97157C17.5392 8.49671 17.9145 9.2198 18.0067 10C18.1889 11.4933 18.5434 12.9533 19.0667 14.35C19.2862 14.9245 19.3399 15.5445 19.2219 16.1471C19.1039 16.7496 18.8182 17.311 18.3934 17.7666L16.4 19.7666C18.3334 23.0399 21.0534 25.76 24.3267 27.7L26.3267 25.7C26.7822 25.2751 27.3437 24.9895 27.9462 24.8715C28.5487 24.7534 29.1688 24.8072 29.7434 25.0266C31.14 25.55 32.6 25.9045 34.0934 26.0866C34.8825 26.18 35.6125 26.5624 36.1392 27.159C36.666 27.7556 36.9479 28.5227 36.9334 29.3133L33.3334 25.7Z" fill="currentColor" stroke="black" stroke-width="3" stroke-linecap="round" stroke-linejoin="round"/>
</svg>
