<?xml version="1.0" encoding="UTF-8"?>
<svg width="40" height="40" viewBox="0 0 40 40" fill="none" xmlns="http://www.w3.org/2000/svg">
  <path d="M20 36.6667V30" stroke="black" stroke-width="3" stroke-linecap="round" stroke-linejoin="round"/>
  <path d="M10 20H3.33337" stroke="black" stroke-width="3" stroke-linecap="round" stroke-linejoin="round"/>
  <path d="M36.6667 20H30" stroke="black" stroke-width="3" stroke-linecap="round" stroke-linejoin="round"/>
  <path d="M31.6667 31.6667L27.5 27.5" stroke="black" stroke-width="3" stroke-linecap="round" stroke-linejoin="round"/>
  <path d="M8.33337 31.6667L12.5 27.5" stroke="black" stroke-width="3" stroke-linecap="round" stroke-linejoin="round"/>
  <path d="M20 3.33334V10C20 11.6667 20.8334 13.3333 22.5 14.1667L31.6667 20C33.3334 18.3333 35 15 31.6667 11.6667C28.3334 8.33334 25 10 23.3334 11.6667L20 20" stroke="black" stroke-width="3" stroke-linecap="round" stroke-linejoin="round"/>
  <path d="M20 3.33334V10C20 11.6667 19.1667 13.3333 17.5 14.1667L8.33337 20C6.66671 18.3333 5.00004 15 8.33337 11.6667C11.6667 8.33334 15 10 16.6667 11.6667L20 20" stroke="black" stroke-width="3" stroke-linecap="round" stroke-linejoin="round"/>
</svg>
